<svg id="Color" enable-background="new 0 0 24 24" height="512" viewBox="0 0 24 24" width="512" xmlns="http://www.w3.org/2000/svg"><path d="m16.778 8.718c-.142-.142-.366-.227-.534-.218l-8.5.065c-.411.004-.744.338-.744.75v13.935c0 .285.162.546.418.672.254.126.561.097.788-.077l3.794-2.901 3.794 2.901c.134.103.294.155.456.155.113 0 .227-.025.332-.078.256-.126.418-.387.418-.672v-14c0-.2-.08-.392-.222-.532z" fill="#f44336"/><path d="m12 14c-3.86 0-7-3.14-7-7s3.14-7 7-7 7 3.14 7 7-3.14 7-7 7z" fill="#ffc107"/><path d="m12.417 11h-1.667c-.414 0-.75-.335-.75-.75s.336-.75.75-.75h1.666c.021 0 .084-.059.084-.167v-3.666c0-.107-.063-.167-.084-.167h-1.666c-.414 0-.75-.335-.75-.75 0-.414.336-.75.75-.75h1.666c.874 0 1.584.748 1.584 1.667v3.667c0 .919-.71 1.666-1.583 1.666z" fill="#ff8f00"/><path d="m13.25 8.25h-2.5c-.414 0-.75-.335-.75-.75s.336-.75.75-.75h2.5c.414 0 .75.336.75.75s-.336.75-.75.75z" fill="#ff8f00"/><path d="m7 11.895v11.355c0 .285.162.546.418.672.105.052.218.078.332.078.162 0 .322-.052.456-.154l3.794-2.902v-6.944c-1.957 0-3.729-.806-5-2.105z" fill="#d43a2f"/><path d="m12 0c-3.86 0-7 3.14-7 7 0 1.903.763 3.631 2 4.894 1.271 1.3 3.043 2.106 5 2.106v-3h-1.25c-.414 0-.75-.335-.75-.75s.336-.75.75-.75h1.25v-1.25h-1.25c-.414 0-.75-.335-.75-.75s.336-.75.75-.75h1.25v-1.25h-1.25c-.414 0-.75-.335-.75-.75 0-.414.336-.75.75-.75h1.25z" fill="#dea806"/><g fill="#de7c00"><path d="m12 9.5h-1.25c-.414 0-.75.336-.75.75s.336.75.75.75h1.25zm0-5.5h-1.25c-.414 0-.75.336-.75.75s.336.75.75.75h1.25z"/><path d="m12 6.75h-1.25c-.414 0-.75.336-.75.75s.336.75.75.75h1.25z"/></g></svg>