<svg id="Capa_1" enable-background="new 0 0 512 512" height="512" viewBox="0 0 512 512" width="512" xmlns="http://www.w3.org/2000/svg" xmlns:xlink="http://www.w3.org/1999/xlink"><linearGradient id="SVGID_1_" gradientUnits="userSpaceOnUse" x1="269" x2="269" y1="8" y2="98"><stop offset=".00000036422" stop-color="#a8abff"/><stop offset="1" stop-color="#fac8ff"/></linearGradient><linearGradient id="lg1"><stop offset=".00000083866" stop-color="#96d1f3"/><stop offset="1" stop-color="#ccfff4"/></linearGradient><linearGradient id="SVGID_2_" gradientUnits="userSpaceOnUse" x1="395" x2="395" xlink:href="#lg1" y1="220" y2="504"/><linearGradient id="SVGID_3_" gradientUnits="userSpaceOnUse" x1="209" x2="209" xlink:href="#lg1" y1="246" y2="504"/><linearGradient id="SVGID_4_" gradientUnits="userSpaceOnUse" x1="256" x2="256" y1=".5" y2="511.5"><stop offset=".00000011981" stop-color="#174fa3"/><stop offset="1" stop-color="#b044af"/></linearGradient><g><g><path d="m239 38h120v90h-120z" fill="#fff"/><path d="m209 8h120v90h-120z" fill="url(#SVGID_1_)"/><path d="m492 504-146-284-48 93v191z" fill="url(#SVGID_2_)"/><path d="m398 504-133.174-257.892-31.826 19.892-24-20-24 20-31.826-19.892-133.174 257.892z" fill="url(#SVGID_3_)"/><path d="m209 246 24 20 31.826-19.892-55.826-108.108-55.826 108.108 31.826 19.892z" fill="#fff"/></g><path d="m496.577 496.5-150.564-292.878-47.331 91.703-82.182-159.147v-30.678h15v30h135v-105h-30v-30h-135v135.678l-186.068 360.322h-15.432v15h512v-15zm-160.077-451h15v75h-105v-15h90zm-120-30h105v75h-105zm-7.5 138.846 45.992 89.064-21.362 13.352-24.63-20.525-24.63 20.524-21.362-13.352zm-176.686 342.154 123.788-239.717 29.528 18.455 23.37-19.475 23.37 19.476 29.528-18.455 123.788 239.716zm370.254 0-95.444-184.827 38.862-75.295 133.725 260.122zm-137.568-109h1.5v-14.5h15v14.5h17.5v15h-34c-4.687 0-8.5 3.813-8.5 8.5s3.813 8.5 8.5 8.5h18c12.958 0 23.5 10.542 23.5 23.5s-10.542 23.5-23.5 23.5h-1.5v14.5h-15v-14.5h-17.5v-15h34c4.687 0 8.5-3.813 8.5-8.5s-3.813-8.5-8.5-8.5h-18c-12.958 0-23.5-10.542-23.5-23.5s10.542-23.5 23.5-23.5zm-23.5-32.5c0 12.958-10.542 23.5-23.5 23.5h-1.5v14.5h-15v-14.5h-17.5v-15h34c4.687 0 8.5-3.813 8.5-8.5s-3.813-8.5-8.5-8.5h-18c-12.958 0-23.5-10.542-23.5-23.5s10.542-23.5 23.5-23.5h1.5v-14.5h15v14.5h17.5v15h-34c-4.687 0-8.5 3.813-8.5 8.5s3.813 8.5 8.5 8.5h18c12.958 0 23.5 10.542 23.5 23.5zm-65 88c0 12.958-10.542 23.5-23.5 23.5h-1.5v14.5h-15v-14.5h-17.5v-15h34c4.687 0 8.5-3.813 8.5-8.5s-3.813-8.5-8.5-8.5h-18c-12.958 0-23.5-10.542-23.5-23.5s10.542-23.5 23.5-23.5h1.5v-14.5h15v14.5h17.5v15h-34c-4.687 0-8.5 3.813-8.5 8.5s3.813 8.5 8.5 8.5h18c12.958 0 23.5 10.542 23.5 23.5z" fill="url(#SVGID_4_)"/></g></svg>