<svg id="Color" enable-background="new 0 0 24 24" height="512" viewBox="0 0 24 24" width="512" xmlns="http://www.w3.org/2000/svg"><path d="m16.778 8.718c-.142-.142-.366-.227-.534-.218l-8.5.065c-.411.004-.744.338-.744.75v13.935c0 .285.162.546.418.672.254.126.561.097.788-.077l3.794-2.901 3.794 2.901c.134.103.294.155.456.155.113 0 .227-.025.332-.078.256-.126.418-.387.418-.672v-14c0-.2-.08-.392-.222-.532z" fill="#f44336"/><path d="m12 14c-3.86 0-7-3.14-7-7s3.14-7 7-7 7 3.14 7 7-3.14 7-7 7z" fill="#ffc107"/><path d="m13.25 11h-2.5c-.414 0-.75-.335-.75-.75v-1.375c0-1.172.897-2.125 2-2.125.271 0 .5-.286.5-.625 0-.338-.229-.625-.5-.625h-1.25c-.414 0-.75-.335-.75-.75 0-.414.336-.75.75-.75h1.25c1.103 0 2 .953 2 2.125s-.897 2.125-2 2.125c-.271 0-.5.286-.5.625v.625h1.75c.414 0 .75.336.75.75 0 .415-.336.75-.75.75z" fill="#ff8f00"/><path d="m7 11.895v11.355c0 .285.162.546.418.672.105.052.218.078.332.078.162 0 .322-.052.456-.154l3.794-2.902v-6.944c-1.957 0-3.729-.806-5-2.105z" fill="#d43a2f"/><path d="m12 8.25c-.271 0-.5.286-.5.625v.625h.5zm0-8.25c-3.86 0-7 3.14-7 7 0 1.903.763 3.631 2 4.894 1.271 1.3 3.043 2.106 5 2.106v-3h-1.25c-.414 0-.75-.335-.75-.75v-1.375c0-1.172.897-2.125 2-2.125v-1.25h-1.25c-.414 0-.75-.335-.75-.75 0-.414.336-.75.75-.75h1.25z" fill="#dea806"/><path d="m12 6.75c-1.103 0-2 .953-2 2.125v1.375c0 .414.336.75.75.75h1.25v-1.5h-.5v-.625c0-.339.229-.625.5-.625zm0-2.75h-1.25c-.414 0-.75.336-.75.75s.336.75.75.75h1.25z" fill="#de7c00"/></svg>